<?xml version="1.0" encoding="UTF-8"?>
<!DOCTYPE svg PUBLIC "-//W3C//DTD SVG 1.1//EN" "http://www.w3.org/Graphics/SVG/1.1/DTD/svg11.dtd">
<!-- Creator: CorelDRAW 2018 (64 Bit Versão de avaliação) -->
<svg xmlns="http://www.w3.org/2000/svg" xml:space="preserve" width="2.629mm" height="2.2466mm" version="1.1" style="shape-rendering:geometricPrecision; text-rendering:geometricPrecision; image-rendering:optimizeQuality; fill-rule:evenodd; clip-rule:evenodd"
viewBox="0 0 10.62 9.08"
 xmlns:xlink="http://www.w3.org/1999/xlink">
 <defs>
  <style type="text/css">
   <![CDATA[
    .fil0 {fill:#FFCC00;fill-rule:nonzero}
   ]]>
  </style>
 </defs>
 <g id="Camada_x0020_1">
  <metadata id="CorelCorpID_0Corel-Layer"/>
  <path class="fil0" d="M4.49 0.66c-0.11,0 -0.21,0.04 -0.29,0.12l-2.13 2.13 -1.67 0c-0.11,0 -0.21,0.04 -0.29,0.12 -0.08,0.08 -0.12,0.18 -0.12,0.29l0 2.45c0,0.11 0.04,0.21 0.12,0.29 0.08,0.08 0.18,0.12 0.29,0.12l1.67 0 2.13 2.13c0.08,0.08 0.18,0.12 0.29,0.12 0.11,0 0.21,-0.04 0.29,-0.12 0.08,-0.08 0.12,-0.18 0.12,-0.29l0 -6.94c0,-0.11 -0.04,-0.21 -0.12,-0.29 -0.08,-0.08 -0.18,-0.12 -0.29,-0.12zm5.32 1.18c-0.54,-0.82 -1.26,-1.42 -2.16,-1.81 -0.05,-0.02 -0.11,-0.03 -0.17,-0.03 -0.11,0 -0.21,0.04 -0.29,0.12 -0.08,0.08 -0.12,0.18 -0.12,0.29 0,0.15 0.08,0.28 0.25,0.38 0.03,0.02 0.08,0.04 0.14,0.07 0.07,0.03 0.11,0.05 0.14,0.07 0.2,0.11 0.37,0.21 0.52,0.32 0.52,0.39 0.93,0.87 1.23,1.45 0.29,0.58 0.44,1.19 0.44,1.84 0,0.65 -0.15,1.27 -0.44,1.84 -0.29,0.58 -0.7,1.06 -1.23,1.45 -0.15,0.11 -0.33,0.22 -0.52,0.33 -0.03,0.02 -0.08,0.04 -0.14,0.07 -0.07,0.03 -0.11,0.05 -0.14,0.07 -0.17,0.1 -0.25,0.22 -0.25,0.38 0,0.11 0.04,0.21 0.12,0.29 0.08,0.08 0.18,0.12 0.29,0.12 0.06,0 0.11,-0.01 0.17,-0.03 0.9,-0.39 1.62,-0.99 2.16,-1.81 0.54,-0.82 0.81,-1.72 0.81,-2.7 0,-0.98 -0.27,-1.88 -0.81,-2.7zm-1.37 4.5c0.36,-0.55 0.54,-1.15 0.54,-1.8 0,-0.65 -0.18,-1.25 -0.54,-1.8 -0.36,-0.55 -0.84,-0.95 -1.44,-1.2 -0.06,-0.02 -0.11,-0.03 -0.17,-0.03 -0.11,0 -0.21,0.04 -0.29,0.12 -0.08,0.08 -0.12,0.18 -0.12,0.29 0,0.17 0.08,0.29 0.25,0.38 0.24,0.12 0.4,0.22 0.48,0.28 0.32,0.23 0.56,0.52 0.74,0.86 0.18,0.35 0.27,0.72 0.27,1.11 0,0.39 -0.09,0.76 -0.27,1.11 -0.18,0.35 -0.42,0.64 -0.74,0.86 -0.08,0.06 -0.25,0.16 -0.48,0.28 -0.17,0.09 -0.25,0.21 -0.25,0.38 0,0.11 0.04,0.21 0.12,0.29 0.08,0.08 0.18,0.12 0.29,0.12 0.05,0 0.1,-0.01 0.16,-0.03 0.6,-0.25 1.07,-0.65 1.44,-1.2zm-1.36 -0.9c0.18,-0.28 0.27,-0.58 0.27,-0.9 0,-0.32 -0.09,-0.63 -0.27,-0.91 -0.18,-0.28 -0.42,-0.48 -0.72,-0.59 -0.04,-0.02 -0.1,-0.03 -0.16,-0.03 -0.11,0 -0.21,0.04 -0.29,0.12 -0.08,0.08 -0.12,0.18 -0.12,0.29 0,0.09 0.03,0.16 0.08,0.23 0.05,0.06 0.11,0.12 0.19,0.16 0.07,0.04 0.14,0.09 0.22,0.15 0.07,0.05 0.13,0.13 0.19,0.23 0.05,0.1 0.08,0.22 0.08,0.36 0,0.14 -0.03,0.27 -0.08,0.36 -0.05,0.1 -0.11,0.17 -0.19,0.23 -0.07,0.05 -0.14,0.1 -0.22,0.15 -0.07,0.04 -0.13,0.1 -0.19,0.16 -0.05,0.06 -0.08,0.14 -0.08,0.23 0,0.11 0.04,0.21 0.12,0.29 0.08,0.08 0.18,0.12 0.29,0.12 0.06,0 0.12,-0.01 0.16,-0.03 0.3,-0.12 0.54,-0.32 0.72,-0.6z"/>
 </g>
</svg>
